#!OML:ASF I:\Actors\actors\Patient Classification 2\Patient 1\Session 1\actor1.ASF
:FULLY-SPECIFIED
:DEGREES
313
root -0.433645 18.9349 4.46972 18.7754 -4.40943 -2.44842
lowerback 49.6847 2.61776 -11.3905
upperback 7.87526 -3.37739 -4.1346
thorax -11.1767 -1.19758 2.1883
lowerneck -23.9759 1.78143 2.12013
upperneck 14.133 0.919889 3.97941
head 8.2963 0.997642 1.1411
rclavicle -6.36111e-015 -2.8625e-014
rhumerus -21.4894 39.0041 -86.5725
rradius 95.8216
rwrist -80.4192
rhand -33.4863 -67.3033
rfingers 7.12502
rthumb -6.68368 457.178
lclavicle -6.36111e-015 -2.8625e-014
lhumerus 18.9524 7.02025 92.2673
lradius 56.7677
lwrist 87.4783
lhand -35.9703 -12.8368
lfingers 7.12502
lthumb -9.08114 16.9477
rfemur 0 0 0
rtibia 0
rfoot 0 0
rtoes 0
lfemur -30.0244 1.35721 -11.5449
ltibia 26.3145
lfoot -16.3776 13.2678
ltoes -54.9616
314
root -0.43116 18.9327 4.47414 18.6281 -4.32384 -2.3533
lowerback 49.5451 2.53105 -11.2968
upperback 7.85583 -3.41633 -4.15837
thorax -11.1874 -1.2144 2.14391
lowerneck -24.2758 1.7508 2.06463
upperneck 14.3508 0.848335 4.11978
head 8.42095 0.982959 1.19463
rclavicle -9.54166e-015 3.10104e-014
rhumerus -21.5267 39.8269 -85.8585
rradius 95.6531
rwrist -81.3673
rhand -33.5471 -66.8394
rfingers 7.12502
rthumb -6.74234 456.712
lclavicle -9.54166e-015 3.10104e-014
lhumerus 18.8319 7.02131 92.4899
lradius 56.8105
lwrist 87.9684
lhand -36.4975 -13.3995
lfingers 7.12502
lthumb -9.58988 16.3622
rfemur 0 0 0
rtibia 0
rfoot 0 0
rtoes 0
lfemur -29.8532 1.11623 -11.602
ltibia 26.2796
lfoot -16.4942 13.3861
ltoes -54.8411
315
root -0.429361 18.9297 4.47584 18.4667 -4.25394 -2.32135
lowerback 49.4396 2.4531 -11.2196
upperback 7.8204 -3.45827 -4.16532
thorax -11.2184 -1.23158 2.12552
lowerneck -24.5217 1.75767 2.0449
upperneck 14.6276 0.819413 4.2374
head 8.55714 0.988671 1.24085
rclavicle 3.18055e-014 3.49861e-014
rhumerus -21.7777 40.1999 -85.6709
rradius 95.591
rwrist -81.7642
rhand -33.6407 -66.5656
rfingers 7.12502
rthumb -6.83271 456.435
lclavicle 3.18055e-014 3.49861e-014
lhumerus 18.6905 7.01321 92.585
lradius 56.7234
lwrist 87.9397
lhand -36.5236 -13.6463
lfingers 7.12502
lthumb -9.61499 16.1143
rfemur 0 0 0
rtibia 0
rfoot 0 0
rtoes 0
lfemur -29.6586 0.912565 -11.5929
ltibia 26.2465
lfoot -16.6164 13.4824
ltoes -54.8336
316
root -0.431337 18.9261 4.47385 18.2611 -4.21175 -2.37114
lowerback 49.3697 2.41236 -11.1457
upperback 7.80034 -3.46088 -4.15661
thorax -11.2379 -1.2337 2.1069
lowerneck -24.583 1.78986 2.15232
upperneck 14.7388 0.827868 4.1948
head 8.6064 0.996727 1.21251
rclavicle 2.8625e-014 2.94201e-014
rhumerus -22.0189 40.3376 -85.6302
rradius 95.5606
rwrist -81.9192
rhand -33.6025 -66.2903
rfingers 7.12502
rthumb -6.79581 456.161
lclavicle 2.8625e-014 2.94201e-014
lhumerus 18.6024 7.02998 92.6185
lradius 56.5465
lwrist 87.6451
lhand -36.1282 -13.5157
lfingers 7.12502
lthumb -9.23351 16.2621
rfemur 0 0 0
rtibia 0
rfoot 0 0
rtoes 0
lfemur -29.4005 0.86318 -11.516
ltibia 26.2113
lfoot -16.7159 13.4146
ltoes -54.7956
317
root -0.433562 18.9228 4.47023 18.0791 -4.18367 -2.3807
lowerback 49.2659 2.3643 -11.0993
upperback 7.80349 -3.48316 -4.17755
thorax -11.2235 -1.2454 2.07705
lowerneck -24.58 1.83245 2.36913
upperneck 14.71 0.824134 4.13766
head 8.59792 1.0008 1.1573
rclavicle 4.45278e-014 -2.78299e-014
rhumerus -22.1841 40.4237 -85.5987
rradius 95.5209
rwrist -82.1022
rhand -33.5776 -66.2766
rfingers 7.12502
rthumb -6.77185 456.148
lclavicle 4.45278e-014 -2.78299e-014
lhumerus 18.6184 7.12628 92.6654
lradius 56.3579
lwrist 87.4041
lhand -35.9313 -13.3221
lfingers 7.12502
lthumb -9.04349 16.464
rfemur 0 0 0
rtibia 0
rfoot 0 0
rtoes 0
lfemur -29.1794 0.814088 -11.4811
ltibia 26.1775
lfoot -16.7723 13.3604
ltoes -54.7402
318
root -0.435965 18.9211 4.4655 17.9336 -4.17635 -2.33499
lowerback 49.1683 2.32118 -11.1318
upperback 7.78799 -3.54329 -4.21131
thorax -11.2217 -1.27023 2.08419
lowerneck -24.6998 1.87019 2.55894
upperneck 14.8345 0.77899 4.23505
head 8.66329 1.00551 1.1573
rclavicle -3.49861e-014 -3.97569e-014
rhumerus -22.4441 40.5042 -85.7257
rradius 95.4636
rwrist -82.2392
rhand -33.5781 -66.3263
rfingers 7.12502
rthumb -6.77228 456.198
lclavicle -3.49861e-014 -3.97569e-014
lhumerus 18.701 7.32518 92.7122
lradius 56.0923
lwrist 87.2179
lhand -35.9318 -13.3015
lfingers 7.12502
lthumb -9.04403 16.4846
rfemur 0 0 0
rtibia 0
rfoot 0 0
rtoes 0
lfemur -29.0176 0.805104 -11.5252
ltibia 26.1499
lfoot -16.7483 13.3538
ltoes -54.843
319
root -0.439283 18.9195 4.4584 17.7812 -4.1745 -2.30395
lowerback 49.1537 2.29518 -11.216
upperback 7.74203 -3.616 -4.19615
thorax -11.2579 -1.29771 2.17085
lowerneck -24.8119 1.88368 2.57242
upperneck 14.9738 0.736884 4.44732
head 8.73139 1.01471 1.22568
rclavicle -6.99722e-014 -4.13472e-014
rhumerus -22.7883 40.7146 -85.8571
rradius 95.4218
rwrist -82.415
rhand -33.542 -66.2446
rfingers 7.12502
rthumb -6.73748 456.117
lclavicle -6.99722e-014 -4.13472e-014
lhumerus 18.6804 7.59727 92.754
lradius 55.9607
lwrist 87.1466
lhand -35.9272 -13.4705
lfingers 7.12502
lthumb -9.03959 16.3158
rfemur 0 0 0
rtibia 0
rfoot 0 0
rtoes 0
lfemur -28.8642 0.855521 -11.5662
ltibia 26.1321
lfoot -16.712 13.3043
ltoes -54.9134
320
root -0.442511 18.9171 4.45024 17.6419 -4.15563 -2.30196
lowerback 49.1712 2.25517 -11.2723
upperback 7.72054 -3.69102 -4.16743
thorax -11.2726 -1.32868 2.25993
lowerneck -24.9013 1.89378 2.58659
upperneck 15.0047 0.703892 4.61916
head 8.75807 1.02142 1.2797
rclavicle 2.22639e-014 3.18055e-014
rhumerus -23.0711 41.0458 -85.8973
rradius 95.3924
rwrist -82.6881
rhand -33.5433 -66.1657
rfingers 7.12502
rthumb -6.73867 456.038
lclavicle 2.22639e-014 3.18055e-014
lhumerus 18.6558 7.86899 92.7878
lradius 55.9782
lwrist 87.0827
lhand -35.8876 -13.5602
lfingers 7.12502
lthumb -9.00131 16.2277
rfemur 0 0 0
rtibia 0
rfoot 0 0
rtoes 0
lfemur -28.736 0.887175 -11.5625
ltibia 26.13
lfoot -16.7181 13.2426
ltoes -54.9138
321
root -0.444293 18.9141 4.44356 17.5753 -4.10515 -2.30366
lowerback 49.1256 2.15527 -11.2526
upperback 7.71195 -3.7916 -4.16362
thorax -11.2712 -1.37276 2.30168
lowerneck -24.9479 1.9263 2.64869
upperneck 15.0409 0.693984 4.75397
head 8.7796 1.03729 1.31614
rclavicle -1.90833e-014 -3.18055e-015
rhumerus -23.3712 41.4832 -85.9215
rradius 95.356
rwrist -83.0121
rhand -33.529 -66.1938
rfingers 7.12502
rthumb -6.72491 456.067
lclavicle -1.90833e-014 -3.18055e-015
lhumerus 18.6351 8.12771 92.781
lradius 56.0329
lwrist 87.0971
lhand -35.9878 -13.6011
lfingers 7.12502
lthumb -9.09798 16.1827
rfemur 0 0 0
rtibia 0
rfoot 0 0
rtoes 0
lfemur -28.696 0.88025 -11.5417
ltibia 26.1398
lfoot -16.7256 13.1857
ltoes -54.9487
322
root -0.445215 18.9109 4.43671 17.5617 -4.04724 -2.27616
lowerback 49.0784 2.04625 -11.2181
upperback 7.67443 -3.8978 -4.15866
thorax -11.3038 -1.41661 2.34127
lowerneck -24.8753 1.93496 2.69475
upperneck 14.9903 0.680901 4.82336
head 8.75088 1.0399 1.3291
rclavicle -4.45278e-014 -4.45278e-014
rhumerus -23.7501 41.9933 -85.9419
rradius 95.3265
rwrist -83.3783
rhand -33.4635 -66.1001
rfingers 7.12502
rthumb -6.66168 455.975
lclavicle -4.45278e-014 -4.45278e-014
lhumerus 18.5605 8.38566 92.7994
lradius 56.1451
lwrist 87.2113
lhand -36.1509 -13.5861
lfingers 7.12502
lthumb -9.2554 16.1908
rfemur 0 0 0
rtibia 0
rfoot 0 0
rtoes 0
lfemur -28.7223 0.835378 -11.5392
ltibia 26.1539
lfoot -16.7487 13.1119
ltoes -54.8794
323
root -0.448245 18.9079 4.42708 17.5514 -4.03373 -2.22263
lowerback 49.1199 2.00331 -11.2641
upperback 7.62886 -3.98005 -4.15324
thorax -11.3522 -1.44695 2.40316
lowerneck -24.9349 1.91988 2.78161
upperneck 14.953 0.616746 4.87983
head 8.74987 1.02137 1.32587
rclavicle 6.36111e-015 6.36111e-015
rhumerus -24.0451 42.5111 -85.9021
rradius 95.2562
rwrist -83.6295
rhand -33.0997 -65.9363
rfingers 7.12502
rthumb -6.31044 455.822
lclavicle 6.36111e-015 6.36111e-015
lhumerus 18.6016 8.67995 92.8931
lradius 56.2157
lwrist 87.1896
lhand -36.1118 -13.5469
lfingers 7.12502
lthumb -9.2177 16.2316
rfemur 0 0 0
rtibia 0
rfoot 0 0
rtoes 0
lfemur -28.7564 0.885122 -11.5846
ltibia 26.1743
lfoot -16.7559 12.9696
ltoes -54.7521
